<?xml version="1.0" encoding="utf-8"?>
<!-- Generator: Adobe Illustrator 23.0.3, SVG Export Plug-In . SVG Version: 6.00 Build 0)  -->
<svg version="1.1" id="Réteg_1" xmlns="http://www.w3.org/2000/svg" xmlns:xlink="http://www.w3.org/1999/xlink" x="0px" y="0px"
	 viewBox="0 0 595.28 841.89" style="enable-background:new 0 0 595.28 841.89;" xml:space="preserve">
<style type="text/css">
	.st0{clip-path:url(#SVGID_2_);}
</style>
<g>
	<defs>
		<rect id="SVGID_1_" width="595.28" height="841.89"/>
	</defs>
	<clipPath id="SVGID_2_">
		<use xlink:href="#SVGID_1_"  style="overflow:visible;"/>
	</clipPath>
	<path class="st0" d="M176.45,137.56c0,2.93-0.46,5.63-1.37,8.08c-0.91,2.45-2.22,4.5-3.92,6.15c-1.33,1.29-2.95,2.34-4.86,3.14
		c-1.91,0.8-4.03,1.2-6.35,1.2c-0.77,0-1.46-0.01-2.06-0.04c-0.6-0.03-1.03-0.06-1.29-0.1c0-0.59,0.01-2.4,0.03-5.44
		c0.02-3.03,0.03-7.42,0.03-13.16c0-2.42-0.01-5.19-0.03-8.32c-0.02-3.13-0.03-6.51-0.03-10.15c0.31,0,0.75-0.01,1.32-0.03
		c0.56-0.02,1.12-0.03,1.68-0.03c2.44,0,4.62,0.36,6.55,1.07c1.93,0.71,3.62,1.76,5.08,3.14c1.73,1.72,3.04,3.74,3.92,6.08
		C176.01,131.5,176.45,134.3,176.45,137.56 M172.49,137.51c0-2.53-0.3-4.76-0.91-6.7c-0.61-1.94-1.53-3.64-2.77-5.09
		c-1.03-1.22-2.24-2.11-3.61-2.67c-1.38-0.56-2.75-0.84-4.14-0.84h-0.3h-0.28c-0.02,2.64-0.03,4.91-0.04,6.82
		c-0.01,1.91-0.01,3.67-0.01,5.27c0,0.96,0.01,3.18,0.03,6.67c0.02,3.49,0.03,7.44,0.03,11.85h0.36h0.39c1.37,0,2.7-0.27,3.99-0.8
		c1.29-0.53,2.41-1.33,3.35-2.38c1.16-1.33,2.11-2.98,2.84-4.94C172.13,142.73,172.49,140.33,172.49,137.51"/>
	<path class="st0" d="M202.03,118.93c0,3.54-0.01,6.47-0.03,8.79c-0.02,2.32-0.03,4.33-0.03,6.05c0,2.07,0.01,4.13,0.03,6.19
		c0.02,2.06,0.03,3.57,0.03,4.53c0,2.03-0.18,3.75-0.54,5.15c-0.36,1.4-0.97,2.65-1.84,3.74c-0.9,1.13-1.97,1.99-3.21,2.6
		c-1.24,0.61-2.7,0.91-4.4,0.91c-1.64,0-3.11-0.31-4.42-0.94c-1.3-0.63-2.38-1.49-3.22-2.57c-0.89-1.11-1.5-2.34-1.85-3.71
		c-0.35-1.37-0.53-3.09-0.53-5.18c0-1.13,0.01-2.58,0.03-4.36c0.02-1.78,0.03-3.9,0.03-6.35c0-1.72-0.01-3.73-0.03-6.05
		c-0.02-2.32-0.03-5.25-0.03-8.79h3.88c0,0.66-0.01,2.29-0.03,4.87c-0.02,2.58-0.03,6.06-0.03,10.43v5.21v5.05
		c0,3.39,0.56,5.77,1.67,7.14c1.12,1.36,2.63,2.05,4.53,2.05c1.99,0,3.52-0.71,4.58-2.12c1.06-1.41,1.59-3.67,1.59-6.79v-5.26v-5.28
		c0-4.28-0.01-7.73-0.03-10.36c-0.02-2.63-0.03-4.27-0.03-4.94H202.03z"/>
	<path class="st0" d="M228.22,154.39l-3.42,2.1c-0.24-0.41-1.58-2.71-4.02-6.9c-2.44-4.19-4.42-7.68-5.93-10.47l0.03-0.25
		c0.55-0.26,1.18-0.67,1.87-1.23s1.34-1.28,1.95-2.15c0.55-0.83,1.01-1.76,1.36-2.8c0.35-1.03,0.53-2.22,0.53-3.55
		c0-1.53-0.24-2.77-0.71-3.73c-0.47-0.95-1.1-1.71-1.9-2.28c-0.5-0.3-1.1-0.53-1.81-0.71c-0.71-0.18-1.49-0.26-2.34-0.26h-0.43
		h-0.46c0,2.77-0.01,5.39-0.03,7.87c-0.02,2.47-0.03,4.89-0.03,7.23c0,3.8,0.01,7.78,0.03,11.91c0.02,4.14,0.03,6.41,0.03,6.82
		h-3.88c0-0.42,0.01-2.2,0.03-5.32c0.02-3.12,0.03-7.55,0.03-13.3c0-2.42-0.01-5.19-0.03-8.31c-0.02-3.12-0.03-6.5-0.03-10.14
		c0.28-0.02,0.82-0.05,1.63-0.08c0.81-0.04,1.76-0.06,2.85-0.06c1.64,0,2.98,0.14,4.02,0.42c1.04,0.28,1.97,0.66,2.78,1.14
		c1.36,0.81,2.4,1.93,3.12,3.35c0.72,1.42,1.08,3.08,1.08,4.96c0,1.9-0.43,3.83-1.3,5.79c-0.87,1.96-2.24,3.57-4.11,4.85v0.17
		c0.81,1.4,2.49,4.17,5.02,8.29C226.68,151.86,228.03,154.08,228.22,154.39"/>
	<path class="st0" d="M252.19,155.65l-3.61,0.95c-0.21-0.74-0.64-2.36-1.3-4.86c-0.66-2.5-1.48-5.54-2.47-9.12h-9.23
		c-0.99,3.64-1.83,6.74-2.52,9.3c-0.68,2.57-1.1,4.13-1.25,4.68l-3.48-0.93c0.24-0.83,1.52-5.38,3.85-13.66
		c2.33-8.27,4.45-16,6.37-23.18h3.57c2.23,8.41,4.42,16.47,6.55,24.16C250.79,150.7,251.97,154.92,252.19,155.65 M243.94,139.42
		c-0.62-2.36-1.26-4.78-1.94-7.27c-0.67-2.49-1.24-4.54-1.69-6.16l-0.25-0.01c-0.51,1.77-1.11,3.94-1.79,6.51
		c-0.68,2.57-1.29,4.88-1.84,6.93l-0.01,0.06h7.53L243.94,139.42z"/>
	<path class="st0" d="M272.95,119.9c-0.26,0.61-1.33,3.03-3.23,7.27c-1.89,4.23-3.59,8.08-5.11,11.53c0,3.34,0.01,6.94,0.03,10.81
		c0.02,3.87,0.03,6.03,0.03,6.49h-3.88c0-0.48,0.02-2.02,0.06-4.64c0.04-2.61,0.04-6.77,0-12.47c-1.38-3.12-3.11-6.94-5.16-11.46
		c-2.06-4.52-3.19-7.03-3.39-7.53l3.51-1.63c0.16,0.44,0.95,2.37,2.36,5.77c1.4,3.4,2.91,6.92,4.51,10.56h0.05
		c1.33-3.01,2.75-6.36,4.28-10.06c1.53-3.7,2.39-5.79,2.6-6.27L272.95,119.9z"/>
	<rect x="275.33" y="150.77" class="st0" width="4.82" height="5.23"/>
	<path class="st0" d="M305.89,137.56c0,2.93-0.46,5.63-1.37,8.08c-0.91,2.45-2.22,4.5-3.92,6.15c-1.33,1.29-2.95,2.34-4.86,3.14
		s-4.03,1.2-6.35,1.2c-0.77,0-1.46-0.01-2.06-0.04c-0.6-0.03-1.03-0.06-1.29-0.1c0-0.59,0.01-2.4,0.03-5.44
		c0.02-3.03,0.03-7.42,0.03-13.16c0-2.42-0.01-5.19-0.03-8.32c-0.02-3.13-0.03-6.51-0.03-10.15c0.31,0,0.75-0.01,1.32-0.03
		c0.56-0.02,1.12-0.03,1.67-0.03c2.44,0,4.62,0.36,6.55,1.07c1.93,0.71,3.62,1.76,5.08,3.14c1.73,1.72,3.04,3.74,3.92,6.08
		C305.46,131.5,305.89,134.3,305.89,137.56 M301.93,137.51c0-2.53-0.3-4.76-0.91-6.7c-0.61-1.94-1.53-3.64-2.77-5.09
		c-1.03-1.22-2.24-2.11-3.61-2.67c-1.38-0.56-2.75-0.84-4.14-0.84h-0.3h-0.28c-0.02,2.64-0.03,4.91-0.04,6.82
		c-0.01,1.91-0.01,3.67-0.01,5.27c0,0.96,0.01,3.18,0.03,6.67c0.02,3.49,0.03,7.44,0.03,11.85h0.36h0.39c1.37,0,2.7-0.27,3.99-0.8
		c1.29-0.53,2.41-1.33,3.35-2.38c1.16-1.33,2.11-2.98,2.84-4.94C301.57,142.73,301.93,140.33,301.93,137.51"/>
	<path class="st0" d="M327.43,156c-0.63,0-1.96,0-4-0.01c-2.04-0.01-3.42-0.01-4.14-0.01c-1.22,0-2.61,0.01-4.18,0.01
		c-1.57,0.01-2.7,0.01-3.38,0.01c0-0.74,0.01-2.53,0.03-5.36c0.02-2.84,0.03-7.52,0.03-14.04c0-2.37-0.01-4.99-0.03-7.86
		c-0.02-2.87-0.03-6.14-0.03-9.8c0.87,0,1.95,0,3.25,0.01c1.3,0.01,2.65,0.01,4.06,0.01c1.27,0,2.75,0,4.43-0.01
		c1.68-0.01,2.89-0.01,3.63-0.01v3.21c-0.63,0-1.62,0-2.96-0.01c-1.35-0.01-2.32-0.01-2.91-0.01c-1.24,0-2.35,0.01-3.35,0.01
		c-1,0.01-1.75,0.01-2.27,0.01c-0.02,1.61-0.03,3.49-0.04,5.65c-0.01,2.15-0.01,4.62-0.01,7.39c0.63,0,1.33,0.01,2.1,0.01
		c0.78,0.01,1.35,0.01,1.72,0.01c1.09,0,2.44,0,4.04-0.01c1.61-0.01,2.83-0.01,3.68-0.01v3.21c-0.52,0-1.75,0-3.71-0.01
		c-1.96-0.01-3.25-0.01-3.88-0.01c-0.44,0-1.04,0-1.8,0.01c-0.76,0.01-1.48,0.01-2.16,0.01c0,0.78,0.01,3.03,0.03,6.77
		c0.02,3.73,0.03,6.28,0.03,7.63c0.66,0,1.48,0,2.43,0.01c0.96,0.01,2.01,0.01,3.16,0.01c0.96,0,2.1,0,3.42-0.01
		c1.32-0.01,2.26-0.01,2.81-0.01V156z"/>
	<path class="st0" d="M347.67,145.9c0,1.86-0.36,3.46-1.08,4.79c-0.72,1.33-1.63,2.42-2.74,3.27c-1.05,0.81-2.3,1.43-3.75,1.87
		c-1.45,0.43-2.86,0.66-4.25,0.68c-0.83,0.02-1.57,0-2.21-0.05c-0.65-0.06-1.13-0.12-1.44-0.19l-0.33-3.52
		c0.39,0.08,0.9,0.14,1.55,0.21c0.65,0.07,1.61,0.1,2.88,0.1c1.02,0,2.01-0.16,2.99-0.47c0.98-0.31,1.78-0.76,2.41-1.33
		c0.65-0.59,1.15-1.29,1.52-2.09c0.37-0.8,0.55-1.79,0.55-2.95c0-1.13-0.22-2.15-0.66-3.06c-0.44-0.91-1.02-1.7-1.72-2.37
		c-0.48-0.46-1.22-1.11-2.23-1.95c-1.01-0.84-1.83-1.53-2.48-2.06c-1.22-1.02-2.23-2.2-3.04-3.56c-0.81-1.36-1.22-2.94-1.22-4.75
		c0-1.51,0.27-2.84,0.82-3.97s1.26-2.14,2.15-3c0.92-0.9,2.14-1.62,3.64-2.15c1.5-0.53,2.87-0.8,4.11-0.82
		c0.94-0.02,1.64-0.02,2.1,0.01c0.46,0.03,0.88,0.06,1.25,0.1l0.33,3.49c-0.28-0.02-0.66-0.05-1.15-0.1
		c-0.49-0.04-1.29-0.06-2.39-0.04c-0.94,0.02-1.85,0.16-2.73,0.43c-0.88,0.27-1.67,0.72-2.37,1.34c-0.52,0.46-0.96,1.07-1.32,1.81
		c-0.36,0.75-0.54,1.56-0.54,2.45c0,1.26,0.26,2.32,0.79,3.2c0.53,0.88,1.12,1.63,1.79,2.26c0.54,0.5,1.17,1.04,1.91,1.63
		c0.74,0.59,1.59,1.27,2.55,2.05c1.27,1.03,2.31,2.25,3.11,3.64S347.67,143.89,347.67,145.9"/>
	<path class="st0" d="M357.27,156h-3.88c0-0.63,0.01-2.45,0.03-5.47c0.02-3.02,0.03-7.4,0.03-13.14c0-2.42-0.01-5.19-0.03-8.32
		c-0.02-3.13-0.03-6.51-0.03-10.15h3.88c0,3.08-0.01,6.39-0.03,9.91c-0.02,3.52-0.03,6.34-0.03,8.44c0,3.8,0.01,7.77,0.03,11.9
		C357.26,153.32,357.27,155.59,357.27,156"/>
	<path class="st0" d="M382.3,137.81c-0.02,1.98-0.03,3.69-0.04,5.14c-0.01,1.45-0.01,2.75-0.01,3.92c0,1.59,0.01,3.41,0.03,5.47
		s0.03,3.33,0.03,3.81c-0.26,0.04-0.67,0.08-1.23,0.13c-0.57,0.05-1.1,0.07-1.62,0.07c-2.86-0.02-5.37-0.54-7.51-1.55
		c-2.15-1.02-3.97-2.62-5.47-4.82c-1.05-1.55-1.9-3.38-2.55-5.49c-0.65-2.11-0.97-4.49-0.97-7.13c0-3.34,0.56-6.32,1.69-8.94
		c1.13-2.62,2.72-4.78,4.79-6.48c1.27-1.05,2.78-1.87,4.52-2.46c1.74-0.59,3.61-0.89,5.61-0.89h0.76h0.76l0.19,3.4h-0.76h-0.57
		c-1.77,0-3.33,0.24-4.66,0.73c-1.34,0.49-2.57,1.23-3.7,2.23c-1.48,1.31-2.63,3.02-3.45,5.13c-0.82,2.11-1.23,4.52-1.23,7.21
		c0,2.84,0.38,5.35,1.14,7.52c0.76,2.17,1.84,3.93,3.24,5.3c0.92,0.9,1.99,1.61,3.21,2.13c1.22,0.52,2.55,0.77,3.99,0.77
		c0-0.55-0.01-2.77-0.03-6.64c-0.02-3.88-0.03-6.73-0.03-8.55H382.3z"/>
	<path class="st0" d="M409.37,118.93c0,3.1-0.01,6.52-0.03,10.27c-0.02,3.75-0.03,6.18-0.03,7.31c0,3.84,0.01,7.71,0.03,11.6
		c0.02,3.89,0.03,6.27,0.03,7.12l-3.13,1.05c-2.88-6.29-5.6-12.15-8.17-17.58c-2.57-5.43-4.42-9.3-5.56-11.6l-0.05,0.03
		c0,5.11,0.02,10.98,0.05,17.61c0.04,6.63,0.05,10.39,0.05,11.27h-3.68c0-0.7,0.01-2.32,0.03-4.86c0.02-2.54,0.03-6.55,0.03-12.03
		c0-2.47-0.01-5.39-0.03-8.75c-0.02-3.36-0.03-6.9-0.03-10.63l3.57-1c0.31,0.74,2.22,4.78,5.73,12.12c3.51,7.34,6.01,12.5,7.5,15.47
		l0.05-0.03c0-3.82-0.01-8.29-0.03-13.39c-0.02-5.11-0.03-9.76-0.03-13.98H409.37z"/>
	<path class="st0" d="M272.47,79.19h12.07c11.73,0,19.1,8.56,19.1,18.93c0,10.49-7.37,18.88-19.1,18.88h-12.07V79.19z
		 M284.54,114.05c9.98,0,15.7-7.09,15.7-15.93c0-8.84-5.67-15.99-15.7-15.99h-8.84v31.91H284.54z"/>
	<path class="st0" d="M260.09,64.19h12.07c11.73,0,19.1,8.56,19.1,18.93c0,10.49-7.37,18.88-19.1,18.88h-12.07V64.19z M272.16,99.05
		c9.98,0,15.7-7.09,15.7-15.93c0-8.84-5.67-15.99-15.7-15.99h-8.84v31.91H272.16z"/>
</g>
</svg>
